<svg xmlns="http://www.w3.org/2000/svg" xmlns:xlink="http://www.w3.org/1999/xlink">
    <!-- Tiles Badges -->
    <symbol id="HEART" viewBox="0 0 24 24">
        <path d="M 21.671875 2.933594 C 19.101562 0.746094 15.28125 1.140625 12.921875 3.570312 L 12 4.523438 L 11.078125 3.570312 C 8.722656 1.140625 4.898438 0.746094 2.328125 2.933594 C -0.613281 5.445312 -0.769531 9.957031 1.867188 12.679688 L 10.9375 22.046875 C 11.523438 22.648438 12.472656 22.648438 13.058594 22.046875 L 22.128906 12.679688 C 24.769531 9.957031 24.613281 5.445312 21.671875 2.933594 Z M 21.671875 2.933594 "/>
    </symbol>


    <symbol id="CHECK" viewBox="0 0 24 24">
        <path d="M8.2,19.6l-7.8-7.8c-0.5-0.5-0.5-1.2,0-1.7L2,8.4c0.5-0.5,1.2-0.5,1.7,0L9,13.7L20.3,2.4c0.5-0.5,1.2-0.5,1.7,0l1.7,1.7
		c0.5,0.5,0.5,1.2,0,1.7L9.8,19.6C9.4,20.1,8.6,20.1,8.2,19.6L8.2,19.6z"/>
    </symbol>

    <symbol id="SEARCH" viewBox="0 0 24 24">
        <path d="M 23.671875 20.75 L 19 16.078125 C 18.789062 15.867188 18.5 15.75 18.203125 15.75 L 17.4375 15.75 C 18.730469 14.09375 19.5 12.015625 19.5 9.75 C 19.5 4.363281 15.136719 0 9.75 0 C 4.363281 0 0 4.363281 0 9.75 C 0 15.136719 4.363281 19.5 9.75 19.5 C 12.015625 19.5 14.09375 18.730469 15.75 17.4375 L 15.75 18.203125 C 15.75 18.5 15.867188 18.789062 16.078125 19 L 20.75 23.671875 C 21.191406 24.113281 21.90625 24.113281 22.339844 23.671875 L 23.667969 22.34375 C 24.109375 21.90625 24.109375 21.191406 23.671875 20.75 Z M 9.75 15.75 C 6.4375 15.75 3.75 13.070312 3.75 9.75 C 3.75 6.4375 6.429688 3.75 9.75 3.75 C 13.0625 3.75 15.75 6.429688 15.75 9.75 C 15.75 13.0625 13.070312 15.75 9.75 15.75 Z M 9.75 15.75 "/>
    </symbol>

    <symbol id="LOGO" viewBox="0 0 24 21">
        <path d="M 11.179688 1.339844 C 4.808594 1.757812 0 7.253906 0 13.542969 L 0 19.03125 C 0 19.390625 0.300781 19.6875 0.667969 19.6875 L 2 19.6875 C 2.367188 19.6875 2.667969 19.390625 2.667969 19.03125 L 2.667969 13.125 C 2.667969 7.660156 7.539062 3.292969 13.230469 4.015625 C 17.933594 4.609375 21.332031 8.777344 21.332031 13.445312 L 21.332031 19.03125 C 21.332031 19.390625 21.632812 19.6875 22 19.6875 L 23.332031 19.6875 C 23.699219 19.6875 24 19.390625 24 19.03125 L 24 13.125 C 24 6.34375 18.167969 0.878906 11.179688 1.339844 Z M 10.945312 5.316406 C 6.917969 5.824219 4 9.398438 4 13.398438 L 4 19.03125 C 4 19.390625 4.300781 19.6875 4.667969 19.6875 L 6 19.6875 C 6.367188 19.6875 6.667969 19.390625 6.667969 19.03125 L 6.667969 13.125 C 6.667969 10.058594 9.355469 7.597656 12.535156 7.898438 C 15.304688 8.167969 17.332031 10.613281 17.332031 13.359375 L 17.332031 19.03125 C 17.332031 19.390625 17.632812 19.6875 18 19.6875 L 19.332031 19.6875 C 19.699219 19.6875 20 19.390625 20 19.03125 L 20 13.125 C 20 8.441406 15.824219 4.699219 10.945312 5.316406 Z M 11.203125 9.265625 C 9.304688 9.628906 8 11.378906 8 13.28125 L 8 19.03125 C 8 19.390625 8.300781 19.6875 8.667969 19.6875 L 10 19.6875 C 10.367188 19.6875 10.667969 19.390625 10.667969 19.03125 L 10.667969 13.125 C 10.667969 12.402344 11.261719 11.8125 12 11.8125 C 12.738281 11.8125 13.332031 12.402344 13.332031 13.125 L 13.332031 19.03125 C 13.332031 19.390625 13.632812 19.6875 14 19.6875 L 15.332031 19.6875 C 15.699219 19.6875 16 19.390625 16 19.03125 L 16 13.125 C 16 10.695312 13.757812 8.777344 11.203125 9.265625 Z M 11.203125 9.265625 "/>
    </symbol>
</svg>