<svg xmlns="http://www.w3.org/2000/svg" xmlns:xlink="http://www.w3.org/1999/xlink">
    <!-- Tiles Badges -->
    <symbol id="HEART" viewBox="0 0 24 24">
        <path d="M 21.671875 2.933594 C 19.101562 0.746094 15.28125 1.140625 12.921875 3.570312 L 12 4.523438 L 11.078125 3.570312 C 8.722656 1.140625 4.898438 0.746094 2.328125 2.933594 C -0.613281 5.445312 -0.769531 9.957031 1.867188 12.679688 L 10.9375 22.046875 C 11.523438 22.648438 12.472656 22.648438 13.058594 22.046875 L 22.128906 12.679688 C 24.769531 9.957031 24.613281 5.445312 21.671875 2.933594 Z M 21.671875 2.933594 "/>
    </symbol>


    <symbol id="CHECK" viewBox="0 0 24 24">
        <path d="M8.2,19.6l-7.8-7.8c-0.5-0.5-0.5-1.2,0-1.7L2,8.4c0.5-0.5,1.2-0.5,1.7,0L9,13.7L20.3,2.4c0.5-0.5,1.2-0.5,1.7,0l1.7,1.7
		c0.5,0.5,0.5,1.2,0,1.7L9.8,19.6C9.4,20.1,8.6,20.1,8.2,19.6L8.2,19.6z"/>
    </symbol>

    <symbol id="SEARCH" viewBox="0 0 24 24">
        <path d="M 23.671875 20.75 L 19 16.078125 C 18.789062 15.867188 18.5 15.75 18.203125 15.75 L 17.4375 15.75 C 18.730469 14.09375 19.5 12.015625 19.5 9.75 C 19.5 4.363281 15.136719 0 9.75 0 C 4.363281 0 0 4.363281 0 9.75 C 0 15.136719 4.363281 19.5 9.75 19.5 C 12.015625 19.5 14.09375 18.730469 15.75 17.4375 L 15.75 18.203125 C 15.75 18.5 15.867188 18.789062 16.078125 19 L 20.75 23.671875 C 21.191406 24.113281 21.90625 24.113281 22.339844 23.671875 L 23.667969 22.34375 C 24.109375 21.90625 24.109375 21.191406 23.671875 20.75 Z M 9.75 15.75 C 6.4375 15.75 3.75 13.070312 3.75 9.75 C 3.75 6.4375 6.429688 3.75 9.75 3.75 C 13.0625 3.75 15.75 6.429688 15.75 9.75 C 15.75 13.0625 13.070312 15.75 9.75 15.75 Z M 9.75 15.75 "/>
    </symbol>
</svg>