<svg xmlns="http://www.w3.org/2000/svg" xmlns:xlink="http://www.w3.org/1999/xlink">

    <symbol id="HEART" viewBox="0 0 24 24">
        <path d="M 21.671875 2.933594 C 19.101562 0.746094 15.28125 1.140625 12.921875 3.570312 L 12 4.523438 L 11.078125 3.570312 C 8.722656 1.140625 4.898438 0.746094 2.328125 2.933594 C -0.613281 5.445312 -0.769531 9.957031 1.867188 12.679688 L 10.9375 22.046875 C 11.523438 22.648438 12.472656 22.648438 13.058594 22.046875 L 22.128906 12.679688 C 24.769531 9.957031 24.613281 5.445312 21.671875 2.933594 Z M 21.671875 2.933594 "/>
    </symbol>

    <symbol id="CHECK" viewBox="0 0 24 24">
        <path d="M8.2,19.6l-7.8-7.8c-0.5-0.5-0.5-1.2,0-1.7L2,8.4c0.5-0.5,1.2-0.5,1.7,0L9,13.7L20.3,2.4c0.5-0.5,1.2-0.5,1.7,0l1.7,1.7
		c0.5,0.5,0.5,1.2,0,1.7L9.8,19.6C9.4,20.1,8.6,20.1,8.2,19.6L8.2,19.6z"/>
    </symbol>

    <symbol id="SEARCH" viewBox="0 0 24 24">
        <path d="M 23.671875 20.75 L 19 16.078125 C 18.789062 15.867188 18.5 15.75 18.203125 15.75 L 17.4375 15.75 C 18.730469 14.09375 19.5 12.015625 19.5 9.75 C 19.5 4.363281 15.136719 0 9.75 0 C 4.363281 0 0 4.363281 0 9.75 C 0 15.136719 4.363281 19.5 9.75 19.5 C 12.015625 19.5 14.09375 18.730469 15.75 17.4375 L 15.75 18.203125 C 15.75 18.5 15.867188 18.789062 16.078125 19 L 20.75 23.671875 C 21.191406 24.113281 21.90625 24.113281 22.339844 23.671875 L 23.667969 22.34375 C 24.109375 21.90625 24.109375 21.191406 23.671875 20.75 Z M 9.75 15.75 C 6.4375 15.75 3.75 13.070312 3.75 9.75 C 3.75 6.4375 6.429688 3.75 9.75 3.75 C 13.0625 3.75 15.75 6.429688 15.75 9.75 C 15.75 13.0625 13.070312 15.75 9.75 15.75 Z M 9.75 15.75 "/>
    </symbol>

    <symbol id="LOGO" viewBox="0 0 24 21">
        <path d="M 11.179688 1.339844 C 4.808594 1.757812 0 7.253906 0 13.542969 L 0 19.03125 C 0 19.390625 0.300781 19.6875 0.667969 19.6875 L 2 19.6875 C 2.367188 19.6875 2.667969 19.390625 2.667969 19.03125 L 2.667969 13.125 C 2.667969 7.660156 7.539062 3.292969 13.230469 4.015625 C 17.933594 4.609375 21.332031 8.777344 21.332031 13.445312 L 21.332031 19.03125 C 21.332031 19.390625 21.632812 19.6875 22 19.6875 L 23.332031 19.6875 C 23.699219 19.6875 24 19.390625 24 19.03125 L 24 13.125 C 24 6.34375 18.167969 0.878906 11.179688 1.339844 Z M 10.945312 5.316406 C 6.917969 5.824219 4 9.398438 4 13.398438 L 4 19.03125 C 4 19.390625 4.300781 19.6875 4.667969 19.6875 L 6 19.6875 C 6.367188 19.6875 6.667969 19.390625 6.667969 19.03125 L 6.667969 13.125 C 6.667969 10.058594 9.355469 7.597656 12.535156 7.898438 C 15.304688 8.167969 17.332031 10.613281 17.332031 13.359375 L 17.332031 19.03125 C 17.332031 19.390625 17.632812 19.6875 18 19.6875 L 19.332031 19.6875 C 19.699219 19.6875 20 19.390625 20 19.03125 L 20 13.125 C 20 8.441406 15.824219 4.699219 10.945312 5.316406 Z M 11.203125 9.265625 C 9.304688 9.628906 8 11.378906 8 13.28125 L 8 19.03125 C 8 19.390625 8.300781 19.6875 8.667969 19.6875 L 10 19.6875 C 10.367188 19.6875 10.667969 19.390625 10.667969 19.03125 L 10.667969 13.125 C 10.667969 12.402344 11.261719 11.8125 12 11.8125 C 12.738281 11.8125 13.332031 12.402344 13.332031 13.125 L 13.332031 19.03125 C 13.332031 19.390625 13.632812 19.6875 14 19.6875 L 15.332031 19.6875 C 15.699219 19.6875 16 19.390625 16 19.03125 L 16 13.125 C 16 10.695312 13.757812 8.777344 11.203125 9.265625 Z M 11.203125 9.265625 "/>
    </symbol>




    <!--weather icons-->
    <symbol id="SUNNY" viewBox="0 0 512 512">
        <path d="M256 160c-52.9 0-96 43.1-96 96s43.1 96 96 96 96-43.1 96-96-43.1-96-96-96zm246.4 80.5l-94.7-47.3 33.5-100.4c4.5-13.6-8.4-26.5-21.9-21.9l-100.4 33.5-47.4-94.8c-6.4-12.8-24.6-12.8-31 0l-47.3 94.7L92.7 70.8c-13.6-4.5-26.5 8.4-21.9 21.9l33.5 100.4-94.7 47.4c-12.8 6.4-12.8 24.6 0 31l94.7 47.3-33.5 100.5c-4.5 13.6 8.4 26.5 21.9 21.9l100.4-33.5 47.3 94.7c6.4 12.8 24.6 12.8 31 0l47.3-94.7 100.4 33.5c13.6 4.5 26.5-8.4 21.9-21.9l-33.5-100.4 94.7-47.3c13-6.5 13-24.7.2-31.1zm-155.9 106c-49.9 49.9-131.1 49.9-181 0-49.9-49.9-49.9-131.1 0-181 49.9-49.9 131.1-49.9 181 0 49.9 49.9 49.9 131.1 0 181z"></path>
    </symbol>

    <symbol id="MOSTLY_SUNNY" viewBox="0 0 640 512">
        <path d="M576 224c-12 0-23.1 3.5-32.7 9.2-3.5-41-37.4-73.2-79.3-73.2-38.8 0-71.1 27.6-78.4 64.2-.5 0-1-.2-1.6-.2-35.3 0-64 28.7-64 64s28.7 64 64 64h192c35.3 0 64-28.7 64-64s-28.7-64-64-64zM429.4 384H384c-22.2 0-42.4-7.9-58.6-20.5-49.6 32-116.5 26.4-159.9-16.9-49.9-49.9-49.9-131.1 0-181s131.1-49.9 181 0c7.2 7.2 13 15.1 18.1 23.4 13.2-25.5 35.6-45 62.6-54.5l13.9-41.7c4.5-13.6-8.4-26.5-21.9-21.9l-100.4 33.5-47.3-94.8c-6.4-12.8-24.6-12.8-31 0l-47.3 94.7L92.7 70.8c-13.6-4.5-26.5 8.4-21.9 21.9l33.5 100.4-94.7 47.4c-12.8 6.4-12.8 24.6 0 31l94.7 47.3-33.5 100.5c-4.5 13.6 8.4 26.5 21.9 21.9l100.4-33.5 47.3 94.7c6.4 12.8 24.6 12.8 31 0l47.3-94.7 100.4 33.5c13.6 4.5 26.5-8.4 21.9-21.9L429.4 384zm-92.5-179.3C319.8 177.9 290 160 256 160c-52.9 0-96 43.1-96 96s43.1 96 96 96c17.2 0 33.1-4.9 47.1-12.8-9.4-14.8-15.1-32.3-15.1-51.2 0-35.8 19.8-66.8 48.9-83.3z"></path>
    </symbol>

    <symbol id="PARTLY_SUNNY" viewBox="0 0 640 512">
        <path d="M575.2 325.7c.2-1.9.8-3.7.8-5.6 0-35.3-28.7-64-64-64-12.6 0-24.2 3.8-34.1 10-17.6-38.8-56.5-66-101.9-66-61.8 0-112 50.1-112 112 0 3 .7 5.8.9 8.7-49.6 3.7-88.9 44.7-88.9 95.3 0 53 43 96 96 96h272c53 0 96-43 96-96 0-42.1-27.2-77.4-64.8-90.4zm-430.4-22.6c-43.7-43.7-43.7-114.7 0-158.3 43.7-43.7 114.7-43.7 158.4 0 9.7 9.7 16.9 20.9 22.3 32.7 9.8-3.7 20.1-6 30.7-7.5L386 81.1c4-11.9-7.3-23.1-19.2-19.2L279 91.2 237.5 8.4C232-2.8 216-2.8 210.4 8.4L169 91.2 81.1 61.9C69.3 58 58 69.3 61.9 81.1l29.3 87.8-82.8 41.5c-11.2 5.6-11.2 21.5 0 27.1l82.8 41.4-29.3 87.8c-4 11.9 7.3 23.1 19.2 19.2l76.1-25.3c6.1-12.4 14-23.7 23.6-33.5-13.1-5.4-25.4-13.4-36-24zm-4.8-79.2c0 40.8 29.3 74.8 67.9 82.3 8-4.7 16.3-8.8 25.2-11.7 5.4-44.3 31-82.5 67.4-105C287.3 160.4 258 140 224 140c-46.3 0-84 37.6-84 83.9z"></path>
    </symbol>

    <symbol id="INTERMITTENT_CLOUDS" viewBox="0 0 640 512">
        <path fill="currentColor" d="M193.6 240c3.4-27.2 15-53.6 35.9-74.5 49.9-49.9 131.1-49.9 181 0 20.9 20.9 32.5 47.3 35.9 74.5h119l-93.7-46.9 33.5-100.4c4.5-13.6-8.4-26.5-21.9-21.9l-100.4 33.5-47.4-94.7c-6.4-12.8-24.6-12.8-31 0l-47.3 94.7-100.5-33.5c-13.6-4.5-26.5 8.4-21.9 21.9l33.5 100.4L74.6 240h119zM320 160c-47.5 0-86.7 34.7-94.4 80h188.8c-7.7-45.3-46.9-80-94.4-80zM80 336h336c8.8 0 16-7.2 16-16v-16c0-8.8-7.2-16-16-16H80c-8.8 0-16 7.2-16 16v16c0 8.8 7.2 16 16 16zm544-48H496c-8.8 0-16 7.2-16 16v16c0 8.8 7.2 16 16 16h128c8.8 0 16-7.2 16-16v-16c0-8.8-7.2-16-16-16zM208 464H80c-8.8 0-16 7.2-16 16v16c0 8.8 7.2 16 16 16h128c8.8 0 16-7.2 16-16v-16c0-8.8-7.2-16-16-16zm416 0H288c-8.8 0-16 7.2-16 16v16c0 8.8 7.2 16 16 16h336c8.8 0 16-7.2 16-16v-16c0-8.8-7.2-16-16-16zm-48-56v-16c0-8.8-7.2-16-16-16H16c-8.8 0-16 7.2-16 16v16c0 8.8 7.2 16 16 16h544c8.8 0 16-7.2 16-16z"></path>
    </symbol>

    <symbol id="HAZY_SUNSHINE" viewBox="0 0 576 512">
        <path d="M430.8 304.9c9.9 5.6 19 12.4 26.9 20.3C487.1 292.8 529 272 576 272v-64c-61 0-116.3 24.6-156.8 64.3 5.7 9.9 9.8 20.9 11.6 32.6zm-31.6 20.7c.2-1.9.8-3.7.8-5.6 0-35.3-28.7-64-64-64-12.6 0-24.2 3.8-34.1 10-17.6-38.9-56.5-66-101.9-66-61.9 0-112 50.1-112 112 0 3 .7 5.8.9 8.7C39.2 324.4 0 365.4 0 416c0 53 43 96 96 96h272c53 0 96-43 96-96 0-42-27.2-77.4-64.8-90.4zm-160.6-152c21 5.9 40.4 16.5 56.6 31C359.6 119.4 461.3 64 576 64V0C437.1 0 314.2 68.7 238.6 173.6zm87.2 51.5c7.4-.8 36.7-5.4 68.4 18.9 46.4-46.8 110.7-76 181.8-76v-64c-101.3 0-191.6 47.4-250.2 121.1z"></path>
    </symbol>

    <symbol id="MOSTLY_CLOUDY" viewBox="0 0 640 512">
        <path fill="currentColor" d="M448 320h-1.6c-7.4-36.5-39.7-64-78.4-64-24.6 0-46.3 11.3-61 28.8-18.6-35.9-55.8-60.8-99-60.8-58.3 0-105.6 44.7-110.9 101.6C59.3 338.5 32 373.9 32 416c0 53 43 96 96 96h320c53 0 96-43 96-96s-43-96-96-96zm183-71.3c-78.2 14.8-150-44.7-150-123.1 0-45.1 24.3-86.6 63.9-109 6.1-3.4 4.6-12.6-2.4-13.9C532.9.9 523 0 513.1 0 424.2 0 352 71.6 352 160c0 .7.2 1.3.2 2 16.3 16.8 27 38.8 30.3 63.1 38.5 5.1 71.7 29.9 87.6 64.8 23.1 4 44 14.4 61.1 29.1 42.5-4.7 80.7-26 107.1-58.2 4.4-5.5-.4-13.4-7.3-12.1zM68.3 303.2C83.2 238.6 140.2 192 208 192c40.7 0 78.6 17.2 105.4 46.5 11.5-6.5 24.1-10.8 37.1-12.9-6.8-37.3-39.3-65.6-78.5-65.6h-17.6c-7.4-36.5-39.7-64-78.4-64s-71 27.5-78.4 64H80c-44.2 0-80 35.8-80 80 0 33.9 21.2 62.8 51 74.4 5.5-4.1 11.2-8 17.3-11.2z"></path>
    </symbol>

    <symbol id="CLOUDY" viewBox="0 0 640 512">
        <path fill="currentColor" d="M160 320h320c53 0 96-43 96-96s-43-96-96-96c-.6 0-1.1.2-1.6.2 1.1-5.2 1.6-10.6 1.6-16.2 0-44.2-35.8-80-80-80-24.6 0-46.3 11.3-61 28.8C320.4 24.8 283.3 0 240 0c-61.9 0-112 50.1-112 112 0 7.3.8 14.3 2.1 21.2C91.8 145.8 64 181.5 64 224c0 53 43 96 96 96zm48 144H80c-8.8 0-16 7.2-16 16v16c0 8.8 7.2 16 16 16h128c8.8 0 16-7.2 16-16v-16c0-8.8-7.2-16-16-16zm416 0H288c-8.8 0-16 7.2-16 16v16c0 8.8 7.2 16 16 16h336c8.8 0 16-7.2 16-16v-16c0-8.8-7.2-16-16-16zm-48-56v-16c0-8.8-7.2-16-16-16H16c-8.8 0-16 7.2-16 16v16c0 8.8 7.2 16 16 16h544c8.8 0 16-7.2 16-16z"></path>
    </symbol>

    <symbol id="HAZY_SUNSHINE" viewBox="0 0 640 512">
        <path fill="currentColor" d="M544 320c-.6 0-1.1.2-1.6.2 1.1-5.2 1.6-10.6 1.6-16.2 0-44.2-35.8-80-80-80-24.6 0-46.3 11.3-61 28.8-18.6-35.9-55.8-60.8-99-60.8-61.9 0-112 50.1-112 112 0 7.3.8 14.3 2.1 21.2-38.3 12.6-66.1 48.3-66.1 90.8 0 53 43 96 96 96h320c53 0 96-43 96-96s-43-96-96-96zM304 160c40.7 0 78.6 17.2 105.4 46.5 9.8-5.6 20.5-9.4 31.6-11.8 4.3-10.8 7-22.3 7-34.7 0-53-43-96-96-96-14.1 0-27.4 3.2-39.5 8.7C296.6 30.3 256 0 208 0 151.6 0 105.3 41.9 97.6 96.2c-.5 0-1-.2-1.6-.2-53 0-96 43-96 96s43 96 96 96h65.6c8.1-71.8 68.5-128 142.4-128z"></path>
    </symbol>

    <symbol id="OVERCAST" viewBox="0 0 640 512">
        <path fill="currentColor" d="M537.6 226.6c4.1-10.7 6.4-22.4 6.4-34.6 0-53-43-96-96-96-19.7 0-38.1 6-53.3 16.2C367 64.2 315.3 32 256 32c-88.4 0-160 71.6-160 160 0 2.7.1 5.4.2 8.1C40.2 219.8 0 273.2 0 336c0 79.5 64.5 144 144 144h368c70.7 0 128-57.3 128-128 0-61.9-44-113.6-102.4-125.4z"></path>
    </symbol>

    <symbol id="FOG" viewBox="0 0 640 512">
        <path fill="currentColor" d="M544 320c-.6 0-1.1.2-1.6.2 1.1-5.2 1.6-10.6 1.6-16.2 0-44.2-35.8-80-80-80-24.6 0-46.3 11.3-61 28.8-18.6-35.9-55.8-60.8-99-60.8-61.9 0-112 50.1-112 112 0 7.3.8 14.3 2.1 21.2-38.3 12.6-66.1 48.3-66.1 90.8 0 53 43 96 96 96h320c53 0 96-43 96-96s-43-96-96-96zM304 160c40.7 0 78.6 17.2 105.4 46.5 9.8-5.6 20.5-9.4 31.6-11.8 4.3-10.8 7-22.3 7-34.7 0-53-43-96-96-96-14.1 0-27.4 3.2-39.5 8.7C296.6 30.3 256 0 208 0 151.6 0 105.3 41.9 97.6 96.2c-.5 0-1-.2-1.6-.2-53 0-96 43-96 96s43 96 96 96h65.6c8.1-71.8 68.5-128 142.4-128z"></path>
    </symbol>

    <symbol id="SHOWERS" viewBox="0 0 640 512">
        <path fill="currentColor" d="M624 368H80c-8.8 0-16 7.2-16 16v16c0 8.8 7.2 16 16 16h544c8.8 0 16-7.2 16-16v-16c0-8.8-7.2-16-16-16zm-480 96H16c-8.8 0-16 7.2-16 16v16c0 8.8 7.2 16 16 16h128c8.8 0 16-7.2 16-16v-16c0-8.8-7.2-16-16-16zm416 0H224c-8.8 0-16 7.2-16 16v16c0 8.8 7.2 16 16 16h336c8.8 0 16-7.2 16-16v-16c0-8.8-7.2-16-16-16zM144 288h156.1c22.5 19.7 51.6 32 83.9 32s61.3-12.3 83.9-32H528c61.9 0 112-50.1 112-112S589.9 64 528 64c-18 0-34.7 4.6-49.7 12.1C454 31 406.8 0 352 0c-41 0-77.8 17.3-104 44.8C221.8 17.3 185 0 144 0 64.5 0 0 64.5 0 144s64.5 144 144 144z"></path>
    </symbol>

    <symbol id="MOSTLY_CLOUDY_WITH_SHOWERS" viewBox="0 0 576 512">
        <path fill="currentColor" d="M124.1 259.9c-37.4-37.4-37.4-98.3 0-135.8 34.6-34.6 89.1-36.8 126.7-7.4 20-12.9 43.6-20.7 69.2-20.7.7 0 1.3.2 2 .2l8.9-26.7c3.4-10.2-6.3-19.8-16.5-16.4l-75.3 25.1-35.5-71c-4.8-9.6-18.5-9.6-23.3 0l-35.5 71-75.3-25.1c-10.2-3.4-19.8 6.3-16.4 16.5l25.1 75.3-71 35.5c-9.6 4.8-9.6 18.5 0 23.3l71 35.5-25.1 75.3c-3.4 10.2 6.3 19.8 16.5 16.5l59.2-19.7c-.2-2.4-.7-4.7-.7-7.2 0-12.5 2.3-24.5 6.2-35.9-3.6-2.7-7.1-5.2-10.2-8.3zm69.8-58c4.3-24.5 15.8-46.4 31.9-64-9.8-6.2-21.4-9.9-33.8-9.9-35.3 0-64 28.7-64 64 0 18.7 8.2 35.4 21.1 47.1 11.3-15.9 26.6-28.9 44.8-37.2zM436 336h-57.7l17.3-64.9c2-7.6-3.7-15.1-11.6-15.1h-68c-6 0-11.1 4.5-11.9 10.4l-16 120c-1 7.2 4.6 13.6 11.9 13.6h59.3l-23 97.2c-1.8 7.6 4 14.8 11.7 14.8 4.2 0 8.2-2.2 10.4-6l88-152c4.6-8-1.2-18-10.4-18zm74.5-110.5c-6.9-37.2-39.3-65.5-78.5-65.5-12.3 0-23.9 3-34.3 8-17.4-24.1-45.6-40-77.7-40-53 0-96 43-96 96 0 .5.2 1.1.2 1.6C187.6 233 160 265.2 160 304c0 44.2 35.8 80 80 80h16.3c.1-.6 0-1.2 0-1.8l16-120c3-21.8 21.7-38.2 43.7-38.2h68c13.8 0 26.5 6.3 34.9 17.2 8.4 10.9 11.2 24.8 7.6 38.1l-6.6 24.7h16c15.7 0 30.3 8.4 38.1 22 7.8 13.6 7.8 30.5 0 44l-8.1 14h30c44.2 0 80-35.8 80-80 .1-39.2-28.1-71.7-65.4-78.5z"></path>
    </symbol>

    <symbol id="PARTLY_CLOUDY_WITH_SHOWERS" viewBox="0 0 512 512">
        <path fill="currentColor" d="M416 128c-.6 0-1.1.2-1.6.2 1.1-5.2 1.6-10.6 1.6-16.2 0-44.2-35.8-80-80-80-24.6 0-46.3 11.3-61 28.8C256.4 24.8 219.3 0 176 0 114.1 0 64 50.1 64 112c0 7.3.8 14.3 2.1 21.2C27.8 145.8 0 181.5 0 224c0 53 43 96 96 96h320c53 0 96-43 96-96s-43-96-96-96zM48 368c-8.8 0-16 7.2-16 16v80c0 8.8 7.2 16 16 16s16-7.2 16-16v-80c0-8.8-7.2-16-16-16zm96 32c-8.8 0-16 7.2-16 16v80c0 8.8 7.2 16 16 16s16-7.2 16-16v-80c0-8.8-7.2-16-16-16zm96-32c-8.8 0-16 7.2-16 16v80c0 8.8 7.2 16 16 16s16-7.2 16-16v-80c0-8.8-7.2-16-16-16zm96 32c-8.8 0-16 7.2-16 16v80c0 8.8 7.2 16 16 16s16-7.2 16-16v-80c0-8.8-7.2-16-16-16zm96-32c-8.8 0-16 7.2-16 16v80c0 8.8 7.2 16 16 16s16-7.2 16-16v-80c0-8.8-7.2-16-16-16z"></path>
    </symbol>

    <symbol id="THUNDER_STORMS" viewBox="0 0 512 512">
        <path fill="currentColor" d="M183.9 370.1c-7.6-4.4-17.4-1.8-21.8 6l-64 112c-4.4 7.7-1.7 17.5 6 21.8 2.5 1.4 5.2 2.1 7.9 2.1 5.5 0 10.9-2.9 13.9-8.1l64-112c4.4-7.6 1.7-17.4-6-21.8zm96 0c-7.6-4.4-17.4-1.8-21.8 6l-64 112c-4.4 7.7-1.7 17.5 6 21.8 2.5 1.4 5.2 2.1 7.9 2.1 5.5 0 10.9-2.9 13.9-8.1l64-112c4.4-7.6 1.7-17.4-6-21.8zm-192 0c-7.6-4.4-17.4-1.8-21.8 6l-64 112c-4.4 7.7-1.7 17.5 6 21.8 2.5 1.4 5.2 2.1 7.9 2.1 5.5 0 10.9-2.9 13.9-8.1l64-112c4.4-7.6 1.7-17.4-6-21.8zm384 0c-7.6-4.4-17.4-1.8-21.8 6l-64 112c-4.4 7.7-1.7 17.5 6 21.8 2.5 1.4 5.2 2.1 7.9 2.1 5.5 0 10.9-2.9 13.9-8.1l64-112c4.4-7.6 1.7-17.4-6-21.8zm-96 0c-7.6-4.4-17.4-1.8-21.8 6l-64 112c-4.4 7.7-1.7 17.5 6 21.8 2.5 1.4 5.2 2.1 7.9 2.1 5.5 0 10.9-2.9 13.9-8.1l64-112c4.4-7.6 1.7-17.4-6-21.8zM416 128c-.6 0-1.1.2-1.6.2 1.1-5.2 1.6-10.6 1.6-16.2 0-44.2-35.8-80-80-80-24.6 0-46.3 11.3-61 28.8C256.4 24.8 219.3 0 176 0 114.2 0 64 50.1 64 112c0 7.3.8 14.3 2.1 21.2C27.8 145.8 0 181.5 0 224c0 53 43 96 96 96h320c53 0 96-43 96-96s-43-96-96-96z"></path>
    </symbol>

    <symbol id="MOSTLY_CLOUDY_WITH_THUNDER_STORMS" viewBox="0 0 512 512">
        <path fill="currentColor" d="M512 224c0-53-43-96-96-96-.6 0-1.1.2-1.6.2 1.1-5.2 1.6-10.6 1.6-16.2 0-44.2-35.8-80-80-80-24.6 0-46.3 11.3-61 28.8C256.4 24.8 219.3 0 176 0 114.1 0 64 50.1 64 112c0 7.3.8 14.3 2.1 21.2C27.8 145.8 0 181.5 0 224c0 53 43 96 96 96h320c53 0 96-43 96-96zM87.2 353.7c-7.9-3.9-17.5-.7-21.5 7.2l-64 128c-3.9 7.9-.8 17.5 7.2 21.5 2.3 1.1 4.8 1.7 7.2 1.7 5.8 0 11.5-3.2 14.3-8.8l64-128c3.8-8.1.7-17.7-7.2-21.6zm256 0c-7.9-3.9-17.5-.7-21.5 7.2l-64 128c-3.9 7.9-.8 17.5 7.2 21.5 2.3 1.1 4.8 1.7 7.2 1.7 5.8 0 11.5-3.2 14.3-8.8l64-128c3.8-8.1.7-17.7-7.2-21.6zm151.7 35.4l-8-13.9c-2.2-3.8-7.1-5.1-10.9-2.9l-28 16.1V360c0-4.4-3.6-8-8-8h-16c-4.4 0-8 3.6-8 8v28.4l-28-16.1c-3.8-2.2-8.7-.9-10.9 2.9l-8 13.9c-2.2 3.8-.9 8.7 2.9 10.9l27.9 16-27.9 16c-3.8 2.2-5.1 7.1-2.9 10.9l8 13.9c2.2 3.8 7.1 5.1 10.9 2.9l28-16.1V472c0 4.4 3.6 8 8 8h16c4.4 0 8-3.6 8-8v-28.4l28 16.1c3.8 2.2 8.7.9 10.9-2.9l8-13.9c2.2-3.8.9-8.7-2.9-10.9l-27.9-16 27.9-16c3.8-2.2 5.1-7.1 2.9-10.9zm-256 0l-8-13.9c-2.2-3.8-7.1-5.1-10.9-2.9l-28 16.1V360c0-4.4-3.6-8-8-8h-16c-4.4 0-8 3.6-8 8v28.4l-28-16.1c-3.8-2.2-8.7-.9-10.9 2.9l-8 13.9c-2.2 3.8-.9 8.7 2.9 10.9l27.9 16-27.9 16c-3.8 2.2-5.1 7.1-2.9 10.9l8 13.9c2.2 3.8 7.1 5.1 10.9 2.9l28-16.1V472c0 4.4 3.6 8 8 8h16c4.4 0 8-3.6 8-8v-28.4l28 16.1c3.8 2.2 8.7.9 10.9-2.9l8-13.9c2.2-3.8.9-8.7-2.9-10.9l-27.9-16 27.9-16c3.8-2.2 5.1-7.1 2.9-10.9z"></path>
    </symbol>

    <symbol id="PARTLY_CLOUDY_WITH_THUNDER_STORMS" viewBox="0 0 512 512">
        <path fill="currentColor" d="M96 320h320c53 0 96-43 96-96s-43-96-96-96c-.6 0-1.1.2-1.6.2 1.1-5.2 1.6-10.6 1.6-16.2 0-44.2-35.8-80-80-80-24.6 0-46.3 11.3-61 28.8C256.4 24.8 219.3 0 176 0 114.1 0 64 50.1 64 112c0 7.3.8 14.3 2.1 21.2C27.8 145.8 0 181.5 0 224c0 53 43 96 96 96zm30.9 69.1l-8-13.9c-2.2-3.8-7.1-5.1-10.9-2.9l-28 16.1V360c0-4.4-3.6-8-8-8H56c-4.4 0-8 3.6-8 8v28.4l-28-16.1c-3.8-2.2-8.7-.9-10.9 2.9l-8 13.9c-2.2 3.8-.9 8.7 2.9 10.9l27.9 16L4 432c-3.8 2.2-5.1 7.1-2.9 10.9l8 13.9c2.2 3.8 7.1 5.1 10.9 2.9l28-16.1V472c0 4.4 3.6 8 8 8h16c4.4 0 8-3.6 8-8v-28.4l28 16.1c3.8 2.2 8.7.9 10.9-2.9l8-13.9c2.2-3.8.9-8.7-2.9-10.9l-27.9-16 27.9-16c3.8-2.2 5.1-7.1 2.9-10.9zm192 32l-8-13.9c-2.2-3.8-7.1-5.1-10.9-2.9l-28 16.1V392c0-4.4-3.6-8-8-8h-16c-4.4 0-8 3.6-8 8v28.4l-28-16.1c-3.8-2.2-8.7-.9-10.9 2.9l-8 13.9c-2.2 3.8-.9 8.7 2.9 10.9l27.9 16-27.9 16c-3.8 2.2-5.1 7.1-2.9 10.9l8 13.9c2.2 3.8 7.1 5.1 10.9 2.9l28-16.1V504c0 4.4 3.6 8 8 8h16c4.4 0 8-3.6 8-8v-28.4l28 16.1c3.8 2.2 8.7.9 10.9-2.9l8-13.9c2.2-3.8.9-8.7-2.9-10.9l-27.9-16 27.9-16c3.8-2.2 5.1-7.1 2.9-10.9zm192-32l-8-13.9c-2.2-3.8-7.1-5.1-10.9-2.9l-28 16.1V360c0-4.4-3.6-8-8-8h-16c-4.4 0-8 3.6-8 8v28.4l-28-16.1c-3.8-2.2-8.7-.9-10.9 2.9l-8 13.9c-2.2 3.8-.9 8.7 2.9 10.9l27.9 16-27.9 16c-3.8 2.2-5.1 7.1-2.9 10.9l8 13.9c2.2 3.8 7.1 5.1 10.9 2.9l28-16.1V472c0 4.4 3.6 8 8 8h16c4.4 0 8-3.6 8-8v-28.4l28 16.1c3.8 2.2 8.7.9 10.9-2.9l8-13.9c2.2-3.8.9-8.7-2.9-10.9l-27.9-16 27.9-16c3.8-2.2 5.1-7.1 2.9-10.9z"></path>
    </symbol>

    <symbol id="RAIN" viewBox="0 0 512 512">
        <path fill="currentColor" d="M416 128c-.6 0-1.1.2-1.6.2 1.1-5.2 1.6-10.6 1.6-16.2 0-44.2-35.8-80-80-80-24.6 0-46.3 11.3-61 28.8C256.4 24.8 219.3 0 176 0 114.1 0 64 50.1 64 112c0 7.3.8 14.3 2.1 21.2C27.8 145.8 0 181.5 0 224c0 53 43 96 96 96h320c53 0 96-43 96-96s-43-96-96-96zM88 374.2c-12.8 44.4-40 56.4-40 87.7 0 27.7 21.5 50.1 48 50.1s48-22.4 48-50.1c0-31.4-27.2-43.1-40-87.7-2.2-8.1-13.5-8.5-16 0zm160 0c-12.8 44.4-40 56.4-40 87.7 0 27.7 21.5 50.1 48 50.1s48-22.4 48-50.1c0-31.4-27.2-43.1-40-87.7-2.2-8.1-13.5-8.5-16 0zm160 0c-12.8 44.4-40 56.4-40 87.7 0 27.7 21.5 50.1 48 50.1s48-22.4 48-50.1c0-31.4-27.2-43.1-40-87.7-2.2-8.1-13.5-8.5-16 0z"></path>
    </symbol>

    <symbol id="FLURRIES" viewBox="0 0 512 512">
        <path fill="currentColor" d="M156.7 256H16c-8.8 0-16 7.2-16 16v32c0 8.8 7.2 16 16 16h142.2c15.9 0 30.8 10.9 33.4 26.6 3.3 20-12.1 37.4-31.6 37.4-14.1 0-26.1-9.2-30.4-21.9-2.1-6.3-8.6-10.1-15.2-10.1H81.6c-9.8 0-17.7 8.8-15.9 18.4 8.6 44.1 47.6 77.6 94.2 77.6 57.1 0 102.7-50.1 95.2-108.6C249 291 205.4 256 156.7 256zM16 224h336c59.7 0 106.8-54.8 93.8-116.7-7.6-36.2-36.9-65.5-73.1-73.1-55.4-11.6-105.1 24.9-114.9 75.5-1.9 9.6 6.1 18.3 15.8 18.3h32.8c6.7 0 13.1-3.8 15.2-10.1C325.9 105.2 337.9 96 352 96c19.4 0 34.9 17.4 31.6 37.4-2.6 15.7-17.4 26.6-33.4 26.6H16c-8.8 0-16 7.2-16 16v32c0 8.8 7.2 16 16 16zm384 32H243.7c19.3 16.6 33.2 38.8 39.8 64H400c26.5 0 48 21.5 48 48s-21.5 48-48 48c-17.9 0-33.3-9.9-41.6-24.4-2.9-5-8.7-7.6-14.5-7.6h-33.8c-10.9 0-19 10.8-15.3 21.1 17.8 50.6 70.5 84.8 129.4 72.3 41.2-8.7 75.1-41.6 84.7-82.7C526 321.5 470.5 256 400 256z"></path>
    </symbol>

    <symbol id="MOSTLY_CLOUDY_WITH_FLURRIES" viewBox="0 0 640 512">
        <path fill="currentColor" d="M635.3 161.5c-8.9-28.6-32.2-51.9-60.7-60.8-59.1-18.4-114 19.1-124.7 72.4-2 9.8 5.8 18.9 15.7 18.9h32.8c6.7 0 13.1-3.8 15.2-10.1 4.2-12.7 16.3-21.9 30.4-21.9 19.4 0 34.9 17.4 31.6 37.4-2.6 15.7-17.4 26.6-33.4 26.6H413.4c-3.3 22.6-9.9 44.1-19.4 64h150c62.8 0 111.8-60.7 91.3-126.5zm2.8 235.4c-8.9-45.6-51.5-76.9-97.9-76.9H375.6c-18 25.8-41.4 47.4-68.3 63.7.6.1 1 .3 1.6.3h233.3c15.9 0 30.8 10.9 33.4 26.6 3.3 20-12.1 37.4-31.6 37.4-14.1 0-26.1-9.2-30.4-21.9-2.1-6.3-8.6-10.1-15.2-10.1h-32.8c-10 0-17.7 9.3-15.7 19.1 8.9 43.8 47.7 76.9 94.1 76.9 59.2 0 106-53.8 94.1-115.1zM384 192C384 86 298 0 192 0S0 86 0 192s86 192 192 192 192-86 192-192zM192 320c-17.7 0-32-14.3-32-32s14.3-32 32-32 32 14.3 32 32-14.3 32-32 32zm25.4-110.4c-.8 8.2-7.7 14.4-15.9 14.4h-19c-8.2 0-15.1-6.2-15.9-14.4l-12.8-128c-.9-9.4 6.4-17.6 15.9-17.6h44.6c9.5 0 16.9 8.2 15.9 17.6l-12.8 128z"></path>
    </symbol>

    <symbol id="PARTLY_CLOUDY_WITH_FLURRIES" viewBox="0 0 640 512">
        <path fill="currentColor" d="M540.2 320H361.7c-6.3 0-12.5 1.9-17.8 5.4l-44 29.3c-13.2 8.8-7 29.3 8.9 29.3h233.3c15.9 0 30.8 10.9 33.4 26.6 3.3 20-12.1 37.4-31.6 37.4-14.1 0-26.1-9.2-30.4-21.9-2.1-6.3-8.6-10.1-15.2-10.1h-32.8c-10 0-17.7 9.3-15.7 19.1 8.9 43.8 47.7 76.9 94.1 76.9 59.2 0 106-53.8 94.1-115.1-8.7-45.6-51.4-76.9-97.8-76.9zM400 288h144c59.7 0 106.8-54.8 93.8-116.7-7.6-36.2-36.9-65.5-73.1-73.1-55.4-11.6-105.1 24.9-114.9 75.5-1.9 9.6 6.1 18.3 15.8 18.3h32.8c6.7 0 13.1-3.8 15.2-10.1 4.2-12.7 16.3-21.9 30.4-21.9 19.4 0 34.9 17.4 31.6 37.4-2.6 15.7-17.4 26.6-33.4 26.6H400c-8.8 0-16 7.2-16 16v32c0 8.8 7.2 16 16 16zm-99.5 21.2l-5.5-20.4 26.6 15.3c5.8 3.4 13.2 1.4 16.6-4.4l12.1-21c3.4-5.8 1.4-13.2-4.4-16.6l-26.6-15.3 20.4-5.5c6.5-1.7 10.3-8.4 8.6-14.9l-3.1-11.7c-1.7-6.5-8.4-10.3-14.9-8.6L274.7 221l-50.2-29 50.2-29 55.6 14.9c6.5 1.7 13.1-2.1 14.9-8.6l3.1-11.7c1.7-6.5-2.1-13.1-8.6-14.9l-20.4-5.5 26.6-15.3c5.8-3.4 7.8-10.8 4.4-16.6l-12.1-21c-3.4-5.8-10.8-7.8-16.6-4.4L295 95.2l5.5-20.4c1.7-6.5-2.1-13.1-8.6-14.9l-11.7-3.1c-6.5-1.7-13.1 2.1-14.9 8.6L250.4 121 200 150.1V93.2L240.2 53c4.7-4.7 4.7-12.3 0-17l-8.5-8.5c-4.7-4.7-12.3-4.7-17 0L200 42.3V12c0-6.6-5.4-12-12-12h-24c-6.6 0-12 5.4-12 12v30.3l-14.8-14.8c-4.7-4.7-12.3-4.7-17 0l-8.5 8.5c-4.7 4.7-4.7 12.3 0 17L152 93.2v56.9L101.6 121l-15-55.7c-1.7-6.5-8.4-10.3-14.9-8.6L60 59.9c-6.5 1.7-10.3 8.4-8.6 14.9l5.5 20.4-26.5-15.3c-5.8-3.4-13.2-1.4-16.6 4.4l-12.1 21c-3.4 5.8-1.4 13.2 4.4 16.6l26.6 15.3-20.4 5.5c-6.5 1.7-10.3 8.4-8.6 14.9l3.1 11.7c1.7 6.5 8.4 10.3 14.9 8.6L77.3 163l50.2 29-50.2 29-55.7-15c-6.5-1.7-13.1 2.1-14.9 8.6l-3.1 11.7c-1.7 6.5 2.1 13.1 8.6 14.9l20.4 5.5-26.5 15.4c-5.8 3.4-7.8 10.8-4.4 16.6l12.1 21c3.4 5.8 10.8 7.8 16.6 4.4L57 288.8l-5.5 20.4c-1.7 6.5 2.1 13.1 8.6 14.9l11.7 3.1c6.5 1.7 13.1-2.1 14.9-8.6l14.9-55.6 50.4-29.1v56.9L111.8 331c-4.7 4.7-4.7 12.3 0 17l8.5 8.5c4.7 4.7 12.3 4.7 17 0l14.8-14.8V372c0 6.6 5.4 12 12 12h24c6.6 0 12-5.4 12-12v-30.3l14.8 14.8c4.7 4.7 12.3 4.7 17 0l8.5-8.5c4.7-4.7 4.7-12.3 0-17L200 290.8v-56.9l50.4 29.1 14.9 55.6c1.7 6.5 8.4 10.3 14.9 8.6l11.7-3.1c6.5-1.7 10.4-8.4 8.6-14.9z"></path>
    </symbol>

    <symbol id="SNOW" viewBox="0 0 320 512">
        <path fill="currentColor" d="M296 160H180.6l42.6-129.8C227.2 15 215.7 0 200 0H56C44 0 33.8 8.9 32.2 20.8l-32 240C-1.7 275.2 9.5 288 24 288h118.7L96.6 482.5c-3.6 15.2 8 29.5 23.3 29.5 8.4 0 16.4-4.4 20.8-12l176-304c9.3-15.9-2.2-36-20.7-36z"></path>
    </symbol>

    <symbol id="MOSTLY_CLOUDY_WITH_SNOW" viewBox="0 0 576 512">
        <path fill="currentColor" d="M124.1 259.9c-37.4-37.4-37.4-98.3 0-135.8 34.6-34.6 89.1-36.8 126.7-7.4 20-12.9 43.6-20.7 69.2-20.7.7 0 1.3.2 2 .2l8.9-26.7c3.4-10.2-6.3-19.8-16.5-16.4l-75.3 25.1-35.5-71c-4.8-9.6-18.5-9.6-23.3 0l-35.5 71-75.3-25.1c-10.2-3.4-19.8 6.3-16.4 16.5l25.1 75.3-71 35.5c-9.6 4.8-9.6 18.5 0 23.3l71 35.5-25.1 75.3c-3.4 10.2 6.3 19.8 16.5 16.5l59.2-19.7c-.2-2.4-.7-4.7-.7-7.2 0-12.5 2.3-24.5 6.2-35.9-3.6-2.7-7.1-5.2-10.2-8.3zm69.8-58c4.3-24.5 15.8-46.4 31.9-64-9.8-6.2-21.4-9.9-33.8-9.9-35.3 0-64 28.7-64 64 0 18.7 8.2 35.4 21.1 47.1 11.3-15.9 26.6-28.9 44.8-37.2zM436 336h-57.7l17.3-64.9c2-7.6-3.7-15.1-11.6-15.1h-68c-6 0-11.1 4.5-11.9 10.4l-16 120c-1 7.2 4.6 13.6 11.9 13.6h59.3l-23 97.2c-1.8 7.6 4 14.8 11.7 14.8 4.2 0 8.2-2.2 10.4-6l88-152c4.6-8-1.2-18-10.4-18zm74.5-110.5c-6.9-37.2-39.3-65.5-78.5-65.5-12.3 0-23.9 3-34.3 8-17.4-24.1-45.6-40-77.7-40-53 0-96 43-96 96 0 .5.2 1.1.2 1.6C187.6 233 160 265.2 160 304c0 44.2 35.8 80 80 80h16.3c.1-.6 0-1.2 0-1.8l16-120c3-21.8 21.7-38.2 43.7-38.2h68c13.8 0 26.5 6.3 34.9 17.2 8.4 10.9 11.2 24.8 7.6 38.1l-6.6 24.7h16c15.7 0 30.3 8.4 38.1 22 7.8 13.6 7.8 30.5 0 44l-8.1 14h30c44.2 0 80-35.8 80-80 .1-39.2-28.1-71.7-65.4-78.5z"></path>
    </symbol>

    <symbol id="ICE" viewBox="0 0 576 512">
        <path fill="currentColor" d="M567.9 223.8c-70.4 13.3-135-40.3-135-110.8 0-40.6 21.9-78 57.5-98.1 5.5-3.1 4.1-11.4-2.1-12.5C479.6.8 470.7 0 461.8 0c-77.9 0-141.1 61.2-144.4 137.9 26.7 11.9 48.2 33.8 58.9 61.7 37.1 14.3 64 47.4 70.2 86.8 5.1.5 10 1.5 15.2 1.5 44.7 0 85.6-20.2 112.6-53.3 4.2-4.8-.2-12-6.4-10.8zM276 336h-57.7l17.3-64.9c2-7.6-3.7-15.1-11.6-15.1h-68c-6 0-11.1 4.5-11.9 10.4l-16 120c-1 7.2 4.6 13.6 11.9 13.6h59.3l-23 97.2c-1.8 7.6 4 14.8 11.7 14.8 4.2 0 8.2-2.2 10.4-6l88-152c4.6-8-1.2-18-10.4-18zm74.5-110.5c-6.9-37.2-39.3-65.5-78.5-65.5-12.3 0-23.9 3-34.3 8-17.4-24.1-45.6-40-77.7-40-53 0-96 43-96 96 0 .5.2 1.1.2 1.6C27.6 232.9 0 265.2 0 304c0 44.2 35.8 80 80 80h16.3c.1-.6 0-1.2 0-1.8l16-120c3-21.8 21.7-38.2 43.7-38.2h68c13.8 0 26.5 6.3 34.9 17.2 8.4 10.9 11.2 24.8 7.6 38.1l-6.6 24.7h16c15.7 0 30.3 8.4 38.1 22 7.8 13.6 7.8 30.5 0 44l-8.1 14h30c44.2 0 80-35.8 80-80 .1-39.2-28.1-71.7-65.4-78.5z"></path>
    </symbol>

    <symbol id="WINDY" viewBox="0 0 512 512">
        <path fill="currentColor" d="M156.7 256H16c-8.8 0-16 7.2-16 16v32c0 8.8 7.2 16 16 16h142.2c15.9 0 30.8 10.9 33.4 26.6 3.3 20-12.1 37.4-31.6 37.4-14.1 0-26.1-9.2-30.4-21.9-2.1-6.3-8.6-10.1-15.2-10.1H81.6c-9.8 0-17.7 8.8-15.9 18.4 8.6 44.1 47.6 77.6 94.2 77.6 57.1 0 102.7-50.1 95.2-108.6C249 291 205.4 256 156.7 256zM16 224h336c59.7 0 106.8-54.8 93.8-116.7-7.6-36.2-36.9-65.5-73.1-73.1-55.4-11.6-105.1 24.9-114.9 75.5-1.9 9.6 6.1 18.3 15.8 18.3h32.8c6.7 0 13.1-3.8 15.2-10.1C325.9 105.2 337.9 96 352 96c19.4 0 34.9 17.4 31.6 37.4-2.6 15.7-17.4 26.6-33.4 26.6H16c-8.8 0-16 7.2-16 16v32c0 8.8 7.2 16 16 16zm384 32H243.7c19.3 16.6 33.2 38.8 39.8 64H400c26.5 0 48 21.5 48 48s-21.5 48-48 48c-17.9 0-33.3-9.9-41.6-24.4-2.9-5-8.7-7.6-14.5-7.6h-33.8c-10.9 0-19 10.8-15.3 21.1 17.8 50.6 70.5 84.8 129.4 72.3 41.2-8.7 75.1-41.6 84.7-82.7C526 321.5 470.5 256 400 256z"></path>
    </symbol>

    <symbol id="RAIN_WITH_SNOW" viewBox="0 0 512 512">
        <g><path  d="M384 352a32 32 0 1 0 32 32 32 32 0 0 0-32-32zm-192 96a32 32 0 1 0 32 32 32 32 0 0 0-32-32zm128 0a32 32 0 1 0 32 32 32 32 0 0 0-32-32zm-64-96a32 32 0 1 0 32 32 32 32 0 0 0-32-32zM64 448a32 32 0 1 0 32 32 32 32 0 0 0-32-32zm64-96a32 32 0 1 0 32 32 32 32 0 0 0-32-32z" ></path><path class="fa-primary"  d="M512 224a96 96 0 0 1-96 96H96a96 96 0 0 1-96-96c0-42.5 27.8-78.2 66.1-90.8A113.72 113.72 0 0 1 64 112 111.94 111.94 0 0 1 176 0c43.3 0 80.4 24.8 99 60.8C289.7 43.3 311.4 32 336 32a80 80 0 0 1 80 80 78.09 78.09 0 0 1-1.6 16.2c.5 0 1-.2 1.6-.2a96 96 0 0 1 96 96z"></path></g>
    </symbol>

    <symbol id="COLD" viewBox="0 0 576 512">
        <path fill="currentColor" d="M544 278.5V112C544 50.1 493.9 0 432 0S320 50.1 320 112v166.5c-19.7 24.6-32 55.5-32 89.5 0 79.5 64.5 144 144 144s144-64.5 144-144c0-34-12.3-64.9-32-89.5zM432 448c-44.1 0-80-35.9-80-80 0-25.5 12.2-48.9 32-63.8V112c0-26.5 21.5-48 48-48s48 21.5 48 48v192.2c19.8 14.8 32 38.3 32 63.8 0 44.1-35.9 80-80 80zM268.3 305.4c5.1-13 11.4-25.7 19.7-37.5v-7.2L224.6 224l63.4-36.6v-56.1l-88 50.8v-56.9L240.2 85c4.7-4.7 4.7-12.3 0-17l-8.5-8.5c-4.7-4.7-12.3-4.7-17 0L200 74.3V44c0-6.6-5.4-12-12-12h-24c-6.6 0-12 5.4-12 12v30.3l-14.8-14.8c-4.7-4.7-12.3-4.7-17 0l-8.5 8.5c-4.7 4.7-4.7 12.3 0 17l40.2 40.2v56.9L101.6 153l-15-55.7c-1.7-6.5-8.4-10.3-14.9-8.6L60 91.9c-6.5 1.7-10.3 8.4-8.6 14.9l5.5 20.4-26.6-15.3c-5.8-3.4-13.2-1.4-16.6 4.4l-12.1 21c-3.4 5.8-1.4 13.2 4.4 16.6l26.6 15.3-20.4 5.5c-6.5 1.7-10.3 8.4-8.6 14.9l3.1 11.7c1.7 6.5 8.4 10.3 14.9 8.6L77.3 195l50.2 29-50.2 29-55.7-15c-6.5-1.7-13.1 2.1-14.9 8.6l-3.1 11.7c-1.7 6.5 2.1 13.1 8.6 14.9l20.4 5.5-26.5 15.4c-5.8 3.4-7.8 10.8-4.4 16.6l12.1 21c3.4 5.8 10.8 7.8 16.6 4.4L57 320.8l-5.5 20.4c-1.7 6.5 2.1 13.1 8.6 14.9l11.7 3.1c6.5 1.7 13.1-2.1 14.9-8.6l14.9-55.6 50.4-29.1v56.9L111.8 363c-4.7 4.7-4.7 12.3 0 17l8.5 8.5c4.7 4.7 12.3 4.7 17 0l14.8-14.8V404c0 6.6 5.4 12 12 12h24c6.6 0 12-5.4 12-12v-30.3l14.8 14.8c4.7 4.7 12.3 4.7 17 0l8.5-8.5c4.7-4.7 4.7-12.3 0-17L200 322.8v-56.9l68.3 39.5zM448 322.9V304c0-8.8-7.2-16-16-16s-16 7.2-16 16v18.9c-18.6 6.6-32 24.2-32 45.1 0 26.5 21.5 48 48 48s48-21.5 48-48c0-20.9-13.4-38.5-32-45.1z"></path>
    </symbol>

    <symbol id="HOT" viewBox="0 0 640 512">
        <path fill="currentColor" d="M352 267.9V112c0-16.9 3.5-33 8.9-48.1L279 91.2 237.6 8.4C232-2.8 216-2.8 210.4 8.4L169 91.2 81.1 61.9C69.3 58 58 69.3 61.9 81.1L91.2 169 8.4 210.4c-11.2 5.6-11.2 21.5 0 27.1L91.2 279l-29.3 87.9c-4 11.9 7.3 23.1 19.2 19.2l87.9-29.3 41.4 82.8c5.6 11.2 21.6 11.2 27.1 0l41.4-82.9 41.1 13.7c0-.8-.1-1.6-.1-2.5.1-35.8 11.1-70.2 32.1-100zm-60.1 24c-37.4 37.4-98.3 37.4-135.8 0s-37.4-98.4 0-135.8c37.4-37.4 98.3-37.4 135.8 0 37.4 37.4 37.4 98.4 0 135.8zM224 160c-35.3 0-64 28.7-64 64s28.7 64 64 64 64-28.7 64-64-28.7-64-64-64zm384 118.5V112C608 50.1 557.9 0 496 0S384 50.1 384 112v166.5c-19.7 24.6-32 55.5-32 89.5 0 79.5 64.5 144 144 144s144-64.5 144-144c0-34-12.3-64.9-32-89.5zM496 448c-44.1 0-80-35.9-80-80 0-25.5 12.2-48.9 32-63.8V112c0-26.5 21.5-48 48-48s48 21.5 48 48v192.2c19.8 14.8 32 38.3 32 63.8 0 44.1-35.9 80-80 80zm16-125.1V112c0-8.8-7.2-16-16-16s-16 7.2-16 16v210.9c-18.6 6.6-32 24.2-32 45.1 0 26.5 21.5 48 48 48s48-21.5 48-48c0-20.9-13.4-38.5-32-45.1z"></path>
    </symbol>

</svg>